<mxfile host="Electron" agent="Mozilla/5.0 (Windows NT 10.0; Win64; x64) AppleWebKit/537.36 (KHTML, like Gecko) draw.io/26.0.16 Chrome/132.0.6834.196 Electron/34.2.0 Safari/537.36" version="26.0.16">
  <diagram name="Page-1" id="SfomfCRbAf86rtE272KH">
    <mxGraphModel dx="1396" dy="1670" grid="1" gridSize="10" guides="1" tooltips="1" connect="1" arrows="1" fold="1" page="1" pageScale="1" pageWidth="850" pageHeight="1100" math="0" shadow="0">
      <root>
        <mxCell id="0" />
        <mxCell id="1" parent="0" />
        <mxCell id="eST03_oMSXubiLSKI_7_-2" style="edgeStyle=orthogonalEdgeStyle;rounded=0;orthogonalLoop=1;jettySize=auto;html=1;exitX=0;exitY=0.5;exitDx=0;exitDy=0;entryX=1;entryY=0.5;entryDx=0;entryDy=0;endArrow=none;startFill=0;startArrow=ERzeroToMany;labelBackgroundColor=none;strokeColor=#457B9D;fontColor=default;" parent="1" source="2NcFqxsxwlQrP_SusfLM-14" target="2NcFqxsxwlQrP_SusfLM-16" edge="1">
          <mxGeometry relative="1" as="geometry" />
        </mxCell>
        <mxCell id="_xqyPs2F2CwNQKM6FGWI-83" style="edgeStyle=orthogonalEdgeStyle;rounded=0;orthogonalLoop=1;jettySize=auto;html=1;exitX=0;exitY=0.5;exitDx=0;exitDy=0;strokeColor=#457B9D;fontColor=#1D3557;fillColor=#A8DADC;endArrow=ERzeroToMany;endFill=0;entryX=0.75;entryY=0;entryDx=0;entryDy=0;" edge="1" parent="1" source="_xqyPs2F2CwNQKM6FGWI-85" target="2NcFqxsxwlQrP_SusfLM-17">
          <mxGeometry relative="1" as="geometry">
            <mxPoint x="90" y="70" as="targetPoint" />
            <Array as="points">
              <mxPoint x="310" y="-150" />
              <mxPoint x="310" y="40" />
              <mxPoint x="65" y="40" />
            </Array>
          </mxGeometry>
        </mxCell>
        <mxCell id="2NcFqxsxwlQrP_SusfLM-14" value="Customer" style="whiteSpace=wrap;html=1;align=center;labelBackgroundColor=none;fillColor=#ffcc99;strokeColor=#36393d;" parent="1" vertex="1">
          <mxGeometry x="950" y="240" width="100" height="40" as="geometry" />
        </mxCell>
        <mxCell id="eST03_oMSXubiLSKI_7_-1" style="edgeStyle=orthogonalEdgeStyle;rounded=0;orthogonalLoop=1;jettySize=auto;html=1;exitX=1;exitY=0.5;exitDx=0;exitDy=0;entryX=0;entryY=0.5;entryDx=0;entryDy=0;endArrow=none;startFill=0;startArrow=ERoneToMany;labelBackgroundColor=none;strokeColor=#457B9D;fontColor=default;" parent="1" source="2NcFqxsxwlQrP_SusfLM-15" target="2NcFqxsxwlQrP_SusfLM-16" edge="1">
          <mxGeometry relative="1" as="geometry" />
        </mxCell>
        <mxCell id="_xqyPs2F2CwNQKM6FGWI-21" style="edgeStyle=orthogonalEdgeStyle;rounded=0;orthogonalLoop=1;jettySize=auto;html=1;exitX=0;exitY=0.5;exitDx=0;exitDy=0;entryX=1;entryY=0.5;entryDx=0;entryDy=0;strokeColor=#457B9D;fontColor=#1D3557;fillColor=#A8DADC;endArrow=none;startFill=0;curved=1;" edge="1" parent="1" source="2NcFqxsxwlQrP_SusfLM-15" target="_xqyPs2F2CwNQKM6FGWI-11">
          <mxGeometry relative="1" as="geometry" />
        </mxCell>
        <mxCell id="_xqyPs2F2CwNQKM6FGWI-22" style="edgeStyle=orthogonalEdgeStyle;rounded=0;orthogonalLoop=1;jettySize=auto;html=1;exitX=0;exitY=0.5;exitDx=0;exitDy=0;entryX=1;entryY=0.5;entryDx=0;entryDy=0;strokeColor=#457B9D;fontColor=#1D3557;fillColor=#A8DADC;endArrow=none;startFill=0;curved=1;" edge="1" parent="1" source="2NcFqxsxwlQrP_SusfLM-15" target="_xqyPs2F2CwNQKM6FGWI-12">
          <mxGeometry relative="1" as="geometry" />
        </mxCell>
        <mxCell id="_xqyPs2F2CwNQKM6FGWI-23" style="edgeStyle=orthogonalEdgeStyle;rounded=0;orthogonalLoop=1;jettySize=auto;html=1;exitX=0;exitY=0.5;exitDx=0;exitDy=0;entryX=1;entryY=0.5;entryDx=0;entryDy=0;strokeColor=#457B9D;fontColor=#1D3557;fillColor=#A8DADC;endArrow=none;startFill=0;curved=1;" edge="1" parent="1" source="2NcFqxsxwlQrP_SusfLM-15" target="_xqyPs2F2CwNQKM6FGWI-16">
          <mxGeometry relative="1" as="geometry" />
        </mxCell>
        <mxCell id="_xqyPs2F2CwNQKM6FGWI-24" style="edgeStyle=orthogonalEdgeStyle;rounded=0;orthogonalLoop=1;jettySize=auto;html=1;exitX=0;exitY=0.5;exitDx=0;exitDy=0;entryX=1;entryY=0.5;entryDx=0;entryDy=0;strokeColor=#457B9D;fontColor=#1D3557;fillColor=#A8DADC;endArrow=none;startFill=0;curved=1;" edge="1" parent="1" source="2NcFqxsxwlQrP_SusfLM-15" target="_xqyPs2F2CwNQKM6FGWI-13">
          <mxGeometry relative="1" as="geometry" />
        </mxCell>
        <mxCell id="_xqyPs2F2CwNQKM6FGWI-25" style="edgeStyle=orthogonalEdgeStyle;rounded=0;orthogonalLoop=1;jettySize=auto;html=1;exitX=0;exitY=0.5;exitDx=0;exitDy=0;entryX=1;entryY=0.5;entryDx=0;entryDy=0;strokeColor=#457B9D;fontColor=#1D3557;fillColor=#A8DADC;endArrow=none;startFill=0;curved=1;" edge="1" parent="1" source="2NcFqxsxwlQrP_SusfLM-15" target="_xqyPs2F2CwNQKM6FGWI-14">
          <mxGeometry relative="1" as="geometry" />
        </mxCell>
        <mxCell id="_xqyPs2F2CwNQKM6FGWI-26" style="edgeStyle=orthogonalEdgeStyle;rounded=0;orthogonalLoop=1;jettySize=auto;html=1;exitX=0;exitY=0.5;exitDx=0;exitDy=0;entryX=1;entryY=0.5;entryDx=0;entryDy=0;strokeColor=#457B9D;fontColor=#1D3557;fillColor=#A8DADC;endArrow=none;startFill=0;curved=1;" edge="1" parent="1" source="2NcFqxsxwlQrP_SusfLM-15" target="_xqyPs2F2CwNQKM6FGWI-15">
          <mxGeometry relative="1" as="geometry" />
        </mxCell>
        <mxCell id="_xqyPs2F2CwNQKM6FGWI-27" style="edgeStyle=orthogonalEdgeStyle;rounded=0;orthogonalLoop=1;jettySize=auto;html=1;exitX=0;exitY=0.5;exitDx=0;exitDy=0;entryX=1;entryY=0;entryDx=0;entryDy=0;strokeColor=#457B9D;fontColor=#1D3557;fillColor=#A8DADC;endArrow=none;startFill=0;curved=1;" edge="1" parent="1" source="2NcFqxsxwlQrP_SusfLM-15" target="_xqyPs2F2CwNQKM6FGWI-18">
          <mxGeometry relative="1" as="geometry" />
        </mxCell>
        <mxCell id="_xqyPs2F2CwNQKM6FGWI-28" style="edgeStyle=orthogonalEdgeStyle;rounded=0;orthogonalLoop=1;jettySize=auto;html=1;exitX=0.5;exitY=1;exitDx=0;exitDy=0;strokeColor=#457B9D;fontColor=#1D3557;fillColor=#A8DADC;endArrow=none;startFill=0;curved=1;" edge="1" parent="1" source="2NcFqxsxwlQrP_SusfLM-15" target="_xqyPs2F2CwNQKM6FGWI-17">
          <mxGeometry relative="1" as="geometry" />
        </mxCell>
        <mxCell id="_xqyPs2F2CwNQKM6FGWI-29" style="edgeStyle=orthogonalEdgeStyle;rounded=0;orthogonalLoop=1;jettySize=auto;html=1;exitX=0.5;exitY=1;exitDx=0;exitDy=0;entryX=0.5;entryY=0;entryDx=0;entryDy=0;strokeColor=#457B9D;fontColor=#1D3557;fillColor=#A8DADC;endArrow=none;startFill=0;curved=1;" edge="1" parent="1" source="2NcFqxsxwlQrP_SusfLM-15" target="_xqyPs2F2CwNQKM6FGWI-20">
          <mxGeometry relative="1" as="geometry" />
        </mxCell>
        <mxCell id="2NcFqxsxwlQrP_SusfLM-15" value="Vehicle" style="whiteSpace=wrap;html=1;align=center;labelBackgroundColor=none;fillColor=#ffcc99;strokeColor=#36393d;" parent="1" vertex="1">
          <mxGeometry x="-270" y="240" width="100" height="40" as="geometry" />
        </mxCell>
        <mxCell id="eST03_oMSXubiLSKI_7_-10" style="edgeStyle=orthogonalEdgeStyle;rounded=0;orthogonalLoop=1;jettySize=auto;html=1;exitX=0;exitY=0.5;exitDx=0;exitDy=0;entryX=0.75;entryY=1;entryDx=0;entryDy=0;endArrow=ERmandOne;startFill=0;endFill=0;labelBackgroundColor=none;strokeColor=#457B9D;fontColor=default;" parent="1" source="_xqyPs2F2CwNQKM6FGWI-3" target="2NcFqxsxwlQrP_SusfLM-17" edge="1">
          <mxGeometry relative="1" as="geometry" />
        </mxCell>
        <mxCell id="2NcFqxsxwlQrP_SusfLM-16" value="Rent" style="shape=associativeEntity;whiteSpace=wrap;html=1;align=center;labelBackgroundColor=none;fillColor=#ffcc99;strokeColor=#36393d;" parent="1" vertex="1">
          <mxGeometry x="320" y="230" width="140" height="60" as="geometry" />
        </mxCell>
        <mxCell id="2NcFqxsxwlQrP_SusfLM-17" value="Payment" style="whiteSpace=wrap;html=1;align=center;labelBackgroundColor=none;fillColor=#ffcc99;strokeColor=#36393d;" parent="1" vertex="1">
          <mxGeometry x="-10" y="80" width="100" height="40" as="geometry" />
        </mxCell>
        <mxCell id="eST03_oMSXubiLSKI_7_-8" value="" style="edgeStyle=orthogonalEdgeStyle;rounded=0;orthogonalLoop=1;jettySize=auto;html=1;endArrow=ERmandOne;endFill=0;startArrow=ERmandOne;startFill=0;labelBackgroundColor=none;strokeColor=#457B9D;fontColor=default;" parent="1" source="eST03_oMSXubiLSKI_7_-7" target="2NcFqxsxwlQrP_SusfLM-16" edge="1">
          <mxGeometry relative="1" as="geometry" />
        </mxCell>
        <mxCell id="eST03_oMSXubiLSKI_7_-11" style="edgeStyle=orthogonalEdgeStyle;rounded=0;orthogonalLoop=1;jettySize=auto;html=1;exitX=0;exitY=0.5;exitDx=0;exitDy=0;entryX=1;entryY=0.5;entryDx=0;entryDy=0;endArrow=ERmandOne;endFill=0;labelBackgroundColor=none;strokeColor=#457B9D;fontColor=default;" parent="1" source="eST03_oMSXubiLSKI_7_-13" target="2NcFqxsxwlQrP_SusfLM-17" edge="1">
          <mxGeometry relative="1" as="geometry" />
        </mxCell>
        <mxCell id="eST03_oMSXubiLSKI_7_-7" value="Return" style="whiteSpace=wrap;html=1;align=center;labelBackgroundColor=none;fillColor=#ffcc99;strokeColor=#36393d;" parent="1" vertex="1">
          <mxGeometry x="340" y="80" width="100" height="40" as="geometry" />
        </mxCell>
        <mxCell id="eST03_oMSXubiLSKI_7_-12" value="" style="edgeStyle=orthogonalEdgeStyle;rounded=0;orthogonalLoop=1;jettySize=auto;html=1;exitX=0;exitY=0.5;exitDx=0;exitDy=0;entryX=1;entryY=0.5;entryDx=0;entryDy=0;endArrow=none;startFill=0;startArrow=ERmandOne;endFill=0;labelBackgroundColor=none;strokeColor=#457B9D;fontColor=default;" parent="1" source="eST03_oMSXubiLSKI_7_-7" target="eST03_oMSXubiLSKI_7_-13" edge="1">
          <mxGeometry relative="1" as="geometry">
            <mxPoint x="340" y="100" as="sourcePoint" />
            <mxPoint x="130" y="100" as="targetPoint" />
          </mxGeometry>
        </mxCell>
        <mxCell id="eST03_oMSXubiLSKI_7_-13" value="Contain" style="shape=rhombus;perimeter=rhombusPerimeter;whiteSpace=wrap;html=1;align=center;labelBackgroundColor=none;fillColor=#fff2cc;strokeColor=#d6b656;" parent="1" vertex="1">
          <mxGeometry x="160" y="70" width="120" height="60" as="geometry" />
        </mxCell>
        <mxCell id="_xqyPs2F2CwNQKM6FGWI-4" value="" style="edgeStyle=orthogonalEdgeStyle;rounded=0;orthogonalLoop=1;jettySize=auto;html=1;exitX=0.25;exitY=0;exitDx=0;exitDy=0;entryX=1;entryY=0.5;entryDx=0;entryDy=0;endArrow=none;startFill=0;endFill=0;startArrow=ERmandOne;labelBackgroundColor=none;strokeColor=#457B9D;fontColor=default;" edge="1" parent="1" source="2NcFqxsxwlQrP_SusfLM-16" target="_xqyPs2F2CwNQKM6FGWI-3">
          <mxGeometry relative="1" as="geometry">
            <mxPoint x="320" y="230" as="sourcePoint" />
            <mxPoint x="65" y="120" as="targetPoint" />
          </mxGeometry>
        </mxCell>
        <mxCell id="_xqyPs2F2CwNQKM6FGWI-3" value="Contain" style="shape=rhombus;perimeter=rhombusPerimeter;whiteSpace=wrap;html=1;align=center;labelBackgroundColor=none;fillColor=#fff2cc;strokeColor=#d6b656;" vertex="1" parent="1">
          <mxGeometry x="130" y="144" width="120" height="60" as="geometry" />
        </mxCell>
        <mxCell id="_xqyPs2F2CwNQKM6FGWI-52" style="edgeStyle=orthogonalEdgeStyle;rounded=0;orthogonalLoop=1;jettySize=auto;html=1;exitX=0;exitY=0.5;exitDx=0;exitDy=0;entryX=1;entryY=0.5;entryDx=0;entryDy=0;strokeColor=#457B9D;fontColor=#1D3557;fillColor=#A8DADC;curved=1;endArrow=none;startFill=0;" edge="1" parent="1" source="_xqyPs2F2CwNQKM6FGWI-5" target="2NcFqxsxwlQrP_SusfLM-14">
          <mxGeometry relative="1" as="geometry" />
        </mxCell>
        <mxCell id="_xqyPs2F2CwNQKM6FGWI-5" value="CustomerID" style="ellipse;whiteSpace=wrap;html=1;align=center;fontStyle=4;strokeColor=#d79b00;fillColor=#ffe6cc;" vertex="1" parent="1">
          <mxGeometry x="1090" y="70" width="100" height="40" as="geometry" />
        </mxCell>
        <mxCell id="_xqyPs2F2CwNQKM6FGWI-53" style="edgeStyle=orthogonalEdgeStyle;rounded=0;orthogonalLoop=1;jettySize=auto;html=1;exitX=0;exitY=0.5;exitDx=0;exitDy=0;strokeColor=#457B9D;fontColor=#1D3557;fillColor=#A8DADC;entryX=1;entryY=0.5;entryDx=0;entryDy=0;curved=1;endArrow=none;startFill=0;" edge="1" parent="1" source="_xqyPs2F2CwNQKM6FGWI-6" target="2NcFqxsxwlQrP_SusfLM-14">
          <mxGeometry relative="1" as="geometry">
            <mxPoint x="1030" y="180" as="targetPoint" />
          </mxGeometry>
        </mxCell>
        <mxCell id="_xqyPs2F2CwNQKM6FGWI-6" value="Name" style="ellipse;whiteSpace=wrap;html=1;align=center;strokeColor=#d79b00;fillColor=#ffe6cc;" vertex="1" parent="1">
          <mxGeometry x="1110" y="126" width="100" height="40" as="geometry" />
        </mxCell>
        <mxCell id="_xqyPs2F2CwNQKM6FGWI-54" style="edgeStyle=orthogonalEdgeStyle;rounded=0;orthogonalLoop=1;jettySize=auto;html=1;exitX=0;exitY=0.5;exitDx=0;exitDy=0;entryX=1;entryY=0.5;entryDx=0;entryDy=0;strokeColor=#457B9D;fontColor=#1D3557;fillColor=#A8DADC;curved=1;endArrow=none;startFill=0;" edge="1" parent="1" source="_xqyPs2F2CwNQKM6FGWI-7" target="2NcFqxsxwlQrP_SusfLM-14">
          <mxGeometry relative="1" as="geometry" />
        </mxCell>
        <mxCell id="_xqyPs2F2CwNQKM6FGWI-7" value="ContactInfo" style="ellipse;whiteSpace=wrap;html=1;align=center;strokeColor=#d79b00;fillColor=#ffe6cc;" vertex="1" parent="1">
          <mxGeometry x="1140" y="186" width="100" height="40" as="geometry" />
        </mxCell>
        <mxCell id="_xqyPs2F2CwNQKM6FGWI-55" style="edgeStyle=orthogonalEdgeStyle;rounded=0;orthogonalLoop=1;jettySize=auto;html=1;exitX=0;exitY=0.5;exitDx=0;exitDy=0;strokeColor=#457B9D;fontColor=#1D3557;fillColor=#A8DADC;curved=1;endArrow=none;startFill=0;" edge="1" parent="1" source="_xqyPs2F2CwNQKM6FGWI-8">
          <mxGeometry relative="1" as="geometry">
            <mxPoint x="1050" y="260.0000000000002" as="targetPoint" />
          </mxGeometry>
        </mxCell>
        <mxCell id="_xqyPs2F2CwNQKM6FGWI-8" value="ContactInfo" style="ellipse;whiteSpace=wrap;html=1;align=center;strokeColor=#d79b00;fillColor=#ffe6cc;" vertex="1" parent="1">
          <mxGeometry x="1160" y="246" width="100" height="40" as="geometry" />
        </mxCell>
        <mxCell id="_xqyPs2F2CwNQKM6FGWI-56" style="edgeStyle=orthogonalEdgeStyle;rounded=0;orthogonalLoop=1;jettySize=auto;html=1;exitX=0;exitY=0.5;exitDx=0;exitDy=0;entryX=1;entryY=0.5;entryDx=0;entryDy=0;strokeColor=#457B9D;fontColor=#1D3557;fillColor=#A8DADC;curved=1;endArrow=none;startFill=0;" edge="1" parent="1" source="_xqyPs2F2CwNQKM6FGWI-10" target="2NcFqxsxwlQrP_SusfLM-14">
          <mxGeometry relative="1" as="geometry" />
        </mxCell>
        <mxCell id="_xqyPs2F2CwNQKM6FGWI-10" value="license number" style="ellipse;whiteSpace=wrap;html=1;align=center;strokeColor=#d79b00;fillColor=#ffe6cc;" vertex="1" parent="1">
          <mxGeometry x="1110" y="306" width="100" height="40" as="geometry" />
        </mxCell>
        <mxCell id="_xqyPs2F2CwNQKM6FGWI-11" value="VehicleID" style="ellipse;whiteSpace=wrap;html=1;align=center;fontStyle=4;strokeColor=#d79b00;fillColor=#ffe6cc;" vertex="1" parent="1">
          <mxGeometry x="-500" y="140" width="100" height="40" as="geometry" />
        </mxCell>
        <mxCell id="_xqyPs2F2CwNQKM6FGWI-12" value="make" style="ellipse;whiteSpace=wrap;html=1;align=center;strokeColor=#d79b00;fillColor=#ffe6cc;" vertex="1" parent="1">
          <mxGeometry x="-540" y="180" width="100" height="40" as="geometry" />
        </mxCell>
        <mxCell id="_xqyPs2F2CwNQKM6FGWI-13" value="Year" style="ellipse;whiteSpace=wrap;html=1;align=center;strokeColor=#d79b00;fillColor=#ffe6cc;" vertex="1" parent="1">
          <mxGeometry x="-540" y="280" width="100" height="40" as="geometry" />
        </mxCell>
        <mxCell id="_xqyPs2F2CwNQKM6FGWI-14" value="Mileage" style="ellipse;whiteSpace=wrap;html=1;align=center;strokeColor=#d79b00;fillColor=#ffe6cc;" vertex="1" parent="1">
          <mxGeometry x="-500" y="330" width="100" height="40" as="geometry" />
        </mxCell>
        <mxCell id="_xqyPs2F2CwNQKM6FGWI-15" value="Rental Rate" style="ellipse;whiteSpace=wrap;html=1;align=center;strokeColor=#d79b00;fillColor=#ffe6cc;" vertex="1" parent="1">
          <mxGeometry x="-440" y="380" width="100" height="40" as="geometry" />
        </mxCell>
        <mxCell id="_xqyPs2F2CwNQKM6FGWI-16" value="Model" style="ellipse;whiteSpace=wrap;html=1;align=center;strokeColor=#d79b00;fillColor=#ffe6cc;" vertex="1" parent="1">
          <mxGeometry x="-550" y="230" width="100" height="40" as="geometry" />
        </mxCell>
        <mxCell id="_xqyPs2F2CwNQKM6FGWI-17" value="Plate Number" style="ellipse;whiteSpace=wrap;html=1;align=center;strokeColor=#d79b00;fillColor=#ffe6cc;" vertex="1" parent="1">
          <mxGeometry x="-260" y="450" width="100" height="40" as="geometry" />
        </mxCell>
        <mxCell id="_xqyPs2F2CwNQKM6FGWI-18" value="Fuel type" style="ellipse;whiteSpace=wrap;html=1;align=center;strokeColor=#d79b00;fillColor=#ffe6cc;" vertex="1" parent="1">
          <mxGeometry x="-360" y="420" width="100" height="40" as="geometry" />
        </mxCell>
        <mxCell id="_xqyPs2F2CwNQKM6FGWI-20" value="Category" style="ellipse;whiteSpace=wrap;html=1;align=center;strokeColor=#d79b00;fillColor=#ffe6cc;" vertex="1" parent="1">
          <mxGeometry x="-160" y="470" width="100" height="40" as="geometry" />
        </mxCell>
        <mxCell id="_xqyPs2F2CwNQKM6FGWI-48" style="edgeStyle=orthogonalEdgeStyle;rounded=0;orthogonalLoop=1;jettySize=auto;html=1;exitX=0.5;exitY=0;exitDx=0;exitDy=0;entryX=0.5;entryY=1;entryDx=0;entryDy=0;strokeColor=#457B9D;fontColor=#1D3557;fillColor=#A8DADC;curved=1;endArrow=none;startFill=0;" edge="1" parent="1" source="_xqyPs2F2CwNQKM6FGWI-30" target="2NcFqxsxwlQrP_SusfLM-16">
          <mxGeometry relative="1" as="geometry" />
        </mxCell>
        <mxCell id="_xqyPs2F2CwNQKM6FGWI-30" value="RentID" style="ellipse;whiteSpace=wrap;html=1;align=center;fontStyle=4;strokeColor=#d79b00;fillColor=#ffe6cc;" vertex="1" parent="1">
          <mxGeometry x="35" y="346" width="100" height="40" as="geometry" />
        </mxCell>
        <mxCell id="_xqyPs2F2CwNQKM6FGWI-51" style="edgeStyle=orthogonalEdgeStyle;rounded=0;orthogonalLoop=1;jettySize=auto;html=1;exitX=0.5;exitY=0;exitDx=0;exitDy=0;entryX=0.5;entryY=1;entryDx=0;entryDy=0;strokeColor=#457B9D;fontColor=#1D3557;fillColor=#A8DADC;curved=1;endArrow=none;startFill=0;" edge="1" parent="1" source="_xqyPs2F2CwNQKM6FGWI-31" target="2NcFqxsxwlQrP_SusfLM-16">
          <mxGeometry relative="1" as="geometry" />
        </mxCell>
        <mxCell id="_xqyPs2F2CwNQKM6FGWI-31" value="StartDate" style="ellipse;whiteSpace=wrap;html=1;align=center;strokeColor=#d79b00;fillColor=#ffe6cc;" vertex="1" parent="1">
          <mxGeometry x="105" y="386" width="100" height="40" as="geometry" />
        </mxCell>
        <mxCell id="_xqyPs2F2CwNQKM6FGWI-46" style="edgeStyle=orthogonalEdgeStyle;rounded=0;orthogonalLoop=1;jettySize=auto;html=1;exitX=0.5;exitY=0;exitDx=0;exitDy=0;entryX=0.5;entryY=1;entryDx=0;entryDy=0;strokeColor=#457B9D;fontColor=#1D3557;fillColor=#A8DADC;curved=1;endArrow=none;startFill=0;" edge="1" parent="1" source="_xqyPs2F2CwNQKM6FGWI-32" target="2NcFqxsxwlQrP_SusfLM-16">
          <mxGeometry relative="1" as="geometry" />
        </mxCell>
        <mxCell id="_xqyPs2F2CwNQKM6FGWI-32" value="EndDate" style="ellipse;whiteSpace=wrap;html=1;align=center;strokeColor=#d79b00;fillColor=#ffe6cc;" vertex="1" parent="1">
          <mxGeometry x="175" y="426" width="100" height="40" as="geometry" />
        </mxCell>
        <mxCell id="_xqyPs2F2CwNQKM6FGWI-44" style="edgeStyle=orthogonalEdgeStyle;rounded=0;orthogonalLoop=1;jettySize=auto;html=1;exitX=0.5;exitY=0;exitDx=0;exitDy=0;strokeColor=#457B9D;fontColor=#1D3557;fillColor=#A8DADC;curved=1;endArrow=none;startFill=0;" edge="1" parent="1" source="_xqyPs2F2CwNQKM6FGWI-33">
          <mxGeometry relative="1" as="geometry">
            <mxPoint x="390" y="290.0000000000002" as="targetPoint" />
          </mxGeometry>
        </mxCell>
        <mxCell id="_xqyPs2F2CwNQKM6FGWI-33" value="Pickup Location" style="ellipse;whiteSpace=wrap;html=1;align=center;strokeColor=#d79b00;fillColor=#ffe6cc;" vertex="1" parent="1">
          <mxGeometry x="255" y="466" width="100" height="40" as="geometry" />
        </mxCell>
        <mxCell id="_xqyPs2F2CwNQKM6FGWI-41" style="edgeStyle=orthogonalEdgeStyle;rounded=0;orthogonalLoop=1;jettySize=auto;html=1;exitX=0.5;exitY=0;exitDx=0;exitDy=0;strokeColor=#457B9D;fontColor=#1D3557;fillColor=#A8DADC;curved=1;endArrow=none;startFill=0;" edge="1" parent="1" source="_xqyPs2F2CwNQKM6FGWI-34">
          <mxGeometry relative="1" as="geometry">
            <mxPoint x="390" y="290.0000000000002" as="targetPoint" />
          </mxGeometry>
        </mxCell>
        <mxCell id="_xqyPs2F2CwNQKM6FGWI-34" value="Initial Total due Amount" style="ellipse;whiteSpace=wrap;html=1;align=center;strokeColor=#d79b00;fillColor=#ffe6cc;" vertex="1" parent="1">
          <mxGeometry x="580" y="420" width="100" height="40" as="geometry" />
        </mxCell>
        <mxCell id="_xqyPs2F2CwNQKM6FGWI-42" style="edgeStyle=orthogonalEdgeStyle;rounded=0;orthogonalLoop=1;jettySize=auto;html=1;exitX=0.5;exitY=0;exitDx=0;exitDy=0;entryX=0.5;entryY=1;entryDx=0;entryDy=0;strokeColor=#457B9D;fontColor=#1D3557;fillColor=#A8DADC;curved=1;endArrow=none;startFill=0;" edge="1" parent="1" source="_xqyPs2F2CwNQKM6FGWI-35" target="2NcFqxsxwlQrP_SusfLM-16">
          <mxGeometry relative="1" as="geometry" />
        </mxCell>
        <mxCell id="_xqyPs2F2CwNQKM6FGWI-35" value="Initial Rental Days" style="ellipse;whiteSpace=wrap;html=1;align=center;strokeColor=#d79b00;fillColor=#ffe6cc;" vertex="1" parent="1">
          <mxGeometry x="470" y="450" width="100" height="40" as="geometry" />
        </mxCell>
        <mxCell id="_xqyPs2F2CwNQKM6FGWI-43" style="edgeStyle=orthogonalEdgeStyle;rounded=0;orthogonalLoop=1;jettySize=auto;html=1;exitX=0.5;exitY=0;exitDx=0;exitDy=0;strokeColor=#457B9D;fontColor=#1D3557;fillColor=#A8DADC;curved=1;endArrow=none;startFill=0;" edge="1" parent="1" source="_xqyPs2F2CwNQKM6FGWI-36" target="2NcFqxsxwlQrP_SusfLM-16">
          <mxGeometry relative="1" as="geometry" />
        </mxCell>
        <mxCell id="_xqyPs2F2CwNQKM6FGWI-36" value="Drop of Location" style="ellipse;whiteSpace=wrap;html=1;align=center;strokeColor=#d79b00;fillColor=#ffe6cc;" vertex="1" parent="1">
          <mxGeometry x="360" y="470" width="100" height="40" as="geometry" />
        </mxCell>
        <mxCell id="_xqyPs2F2CwNQKM6FGWI-40" style="edgeStyle=orthogonalEdgeStyle;rounded=0;orthogonalLoop=1;jettySize=auto;html=1;exitX=0.5;exitY=0;exitDx=0;exitDy=0;entryX=0.5;entryY=1;entryDx=0;entryDy=0;strokeColor=#457B9D;fontColor=#1D3557;fillColor=#A8DADC;curved=1;endArrow=none;startFill=0;" edge="1" parent="1" source="_xqyPs2F2CwNQKM6FGWI-38" target="2NcFqxsxwlQrP_SusfLM-16">
          <mxGeometry relative="1" as="geometry" />
        </mxCell>
        <mxCell id="_xqyPs2F2CwNQKM6FGWI-38" value="Initial Cehck Notes" style="ellipse;whiteSpace=wrap;html=1;align=center;strokeColor=#d79b00;fillColor=#ffe6cc;" vertex="1" parent="1">
          <mxGeometry x="660" y="360" width="100" height="40" as="geometry" />
        </mxCell>
        <mxCell id="_xqyPs2F2CwNQKM6FGWI-79" style="edgeStyle=orthogonalEdgeStyle;rounded=0;orthogonalLoop=1;jettySize=auto;html=1;exitX=0.5;exitY=1;exitDx=0;exitDy=0;entryX=0.5;entryY=0;entryDx=0;entryDy=0;strokeColor=#457B9D;fontColor=#1D3557;fillColor=#A8DADC;endArrow=none;startFill=0;curved=1;" edge="1" parent="1" source="_xqyPs2F2CwNQKM6FGWI-57" target="2NcFqxsxwlQrP_SusfLM-17">
          <mxGeometry relative="1" as="geometry" />
        </mxCell>
        <mxCell id="_xqyPs2F2CwNQKM6FGWI-57" value="PaymentID" style="ellipse;whiteSpace=wrap;html=1;align=center;fontStyle=4;strokeColor=#d79b00;fillColor=#ffe6cc;" vertex="1" parent="1">
          <mxGeometry x="150" y="-110" width="100" height="40" as="geometry" />
        </mxCell>
        <mxCell id="_xqyPs2F2CwNQKM6FGWI-80" style="edgeStyle=orthogonalEdgeStyle;rounded=0;orthogonalLoop=1;jettySize=auto;html=1;exitX=0.5;exitY=1;exitDx=0;exitDy=0;entryX=0.5;entryY=0;entryDx=0;entryDy=0;strokeColor=#457B9D;fontColor=#1D3557;fillColor=#A8DADC;endArrow=none;startFill=0;curved=1;" edge="1" parent="1" source="_xqyPs2F2CwNQKM6FGWI-59" target="2NcFqxsxwlQrP_SusfLM-17">
          <mxGeometry relative="1" as="geometry" />
        </mxCell>
        <mxCell id="_xqyPs2F2CwNQKM6FGWI-59" value="initial Paid Amount" style="ellipse;whiteSpace=wrap;html=1;align=center;strokeColor=#d79b00;fillColor=#ffe6cc;" vertex="1" parent="1">
          <mxGeometry x="50" y="-130" width="100" height="40" as="geometry" />
        </mxCell>
        <mxCell id="_xqyPs2F2CwNQKM6FGWI-81" style="edgeStyle=orthogonalEdgeStyle;rounded=0;orthogonalLoop=1;jettySize=auto;html=1;exitX=0.5;exitY=1;exitDx=0;exitDy=0;entryX=0.5;entryY=0;entryDx=0;entryDy=0;strokeColor=#457B9D;fontColor=#1D3557;fillColor=#A8DADC;endArrow=none;startFill=0;curved=1;" edge="1" parent="1" source="_xqyPs2F2CwNQKM6FGWI-60" target="2NcFqxsxwlQrP_SusfLM-17">
          <mxGeometry relative="1" as="geometry" />
        </mxCell>
        <mxCell id="_xqyPs2F2CwNQKM6FGWI-60" value="Date" style="ellipse;whiteSpace=wrap;html=1;align=center;strokeColor=#d79b00;fillColor=#ffe6cc;" vertex="1" parent="1">
          <mxGeometry x="-60" y="-140" width="100" height="40" as="geometry" />
        </mxCell>
        <mxCell id="_xqyPs2F2CwNQKM6FGWI-77" style="edgeStyle=orthogonalEdgeStyle;rounded=0;orthogonalLoop=1;jettySize=auto;html=1;exitX=0.5;exitY=1;exitDx=0;exitDy=0;entryX=0.5;entryY=0;entryDx=0;entryDy=0;strokeColor=#457B9D;fontColor=#1D3557;fillColor=#A8DADC;endArrow=none;startFill=0;curved=1;" edge="1" parent="1" source="_xqyPs2F2CwNQKM6FGWI-61" target="2NcFqxsxwlQrP_SusfLM-17">
          <mxGeometry relative="1" as="geometry" />
        </mxCell>
        <mxCell id="_xqyPs2F2CwNQKM6FGWI-61" value="Actual Final Amount due" style="ellipse;whiteSpace=wrap;html=1;align=center;strokeColor=#d79b00;fillColor=#ffe6cc;" vertex="1" parent="1">
          <mxGeometry x="-240" y="-70" width="100" height="40" as="geometry" />
        </mxCell>
        <mxCell id="_xqyPs2F2CwNQKM6FGWI-78" style="edgeStyle=orthogonalEdgeStyle;rounded=0;orthogonalLoop=1;jettySize=auto;html=1;exitX=0.5;exitY=1;exitDx=0;exitDy=0;strokeColor=#457B9D;fontColor=#1D3557;fillColor=#A8DADC;entryX=0.5;entryY=0;entryDx=0;entryDy=0;endArrow=none;startFill=0;curved=1;" edge="1" parent="1" source="_xqyPs2F2CwNQKM6FGWI-62" target="2NcFqxsxwlQrP_SusfLM-17">
          <mxGeometry relative="1" as="geometry">
            <mxPoint x="-120" y="50" as="targetPoint" />
          </mxGeometry>
        </mxCell>
        <mxCell id="_xqyPs2F2CwNQKM6FGWI-62" value="remaining amount" style="ellipse;whiteSpace=wrap;html=1;align=center;strokeColor=#d79b00;fillColor=#ffe6cc;" vertex="1" parent="1">
          <mxGeometry x="-300" y="-20" width="100" height="40" as="geometry" />
        </mxCell>
        <mxCell id="_xqyPs2F2CwNQKM6FGWI-76" style="edgeStyle=orthogonalEdgeStyle;rounded=0;orthogonalLoop=1;jettySize=auto;html=1;exitX=0;exitY=0.5;exitDx=0;exitDy=0;entryX=1;entryY=0.5;entryDx=0;entryDy=0;strokeColor=#457B9D;fontColor=#1D3557;fillColor=#A8DADC;curved=1;endArrow=none;startFill=0;" edge="1" parent="1" source="_xqyPs2F2CwNQKM6FGWI-63" target="eST03_oMSXubiLSKI_7_-7">
          <mxGeometry relative="1" as="geometry" />
        </mxCell>
        <mxCell id="_xqyPs2F2CwNQKM6FGWI-63" value="ReturnID" style="ellipse;whiteSpace=wrap;html=1;align=center;fontStyle=4;strokeColor=#d79b00;fillColor=#ffe6cc;" vertex="1" parent="1">
          <mxGeometry x="550" y="154" width="100" height="40" as="geometry" />
        </mxCell>
        <mxCell id="_xqyPs2F2CwNQKM6FGWI-75" style="edgeStyle=orthogonalEdgeStyle;rounded=0;orthogonalLoop=1;jettySize=auto;html=1;exitX=0;exitY=0.5;exitDx=0;exitDy=0;strokeColor=#457B9D;fontColor=#1D3557;fillColor=#A8DADC;curved=1;endArrow=none;startFill=0;" edge="1" parent="1" source="_xqyPs2F2CwNQKM6FGWI-64" target="eST03_oMSXubiLSKI_7_-7">
          <mxGeometry relative="1" as="geometry" />
        </mxCell>
        <mxCell id="_xqyPs2F2CwNQKM6FGWI-64" value="Return Date" style="ellipse;whiteSpace=wrap;html=1;align=center;strokeColor=#d79b00;fillColor=#ffe6cc;" vertex="1" parent="1">
          <mxGeometry x="600" y="110" width="100" height="40" as="geometry" />
        </mxCell>
        <mxCell id="_xqyPs2F2CwNQKM6FGWI-71" style="edgeStyle=orthogonalEdgeStyle;rounded=0;orthogonalLoop=1;jettySize=auto;html=1;exitX=0;exitY=0.5;exitDx=0;exitDy=0;entryX=1;entryY=0.5;entryDx=0;entryDy=0;strokeColor=#457B9D;fontColor=#1D3557;fillColor=#A8DADC;curved=1;endArrow=none;startFill=0;" edge="1" parent="1" source="_xqyPs2F2CwNQKM6FGWI-65" target="eST03_oMSXubiLSKI_7_-7">
          <mxGeometry relative="1" as="geometry" />
        </mxCell>
        <mxCell id="_xqyPs2F2CwNQKM6FGWI-65" value="Actual Rental Days" style="ellipse;whiteSpace=wrap;html=1;align=center;strokeColor=#d79b00;fillColor=#ffe6cc;" vertex="1" parent="1">
          <mxGeometry x="620" y="60" width="100" height="40" as="geometry" />
        </mxCell>
        <mxCell id="_xqyPs2F2CwNQKM6FGWI-72" style="edgeStyle=orthogonalEdgeStyle;rounded=0;orthogonalLoop=1;jettySize=auto;html=1;exitX=0;exitY=0.5;exitDx=0;exitDy=0;strokeColor=#457B9D;fontColor=#1D3557;fillColor=#A8DADC;entryX=1;entryY=0.5;entryDx=0;entryDy=0;curved=1;endArrow=none;startFill=0;" edge="1" parent="1" source="_xqyPs2F2CwNQKM6FGWI-66" target="eST03_oMSXubiLSKI_7_-7">
          <mxGeometry relative="1" as="geometry">
            <mxPoint x="470" y="80" as="targetPoint" />
          </mxGeometry>
        </mxCell>
        <mxCell id="_xqyPs2F2CwNQKM6FGWI-66" value="Final Vehicle Chek Notes" style="ellipse;whiteSpace=wrap;html=1;align=center;strokeColor=#d79b00;fillColor=#ffe6cc;" vertex="1" parent="1">
          <mxGeometry x="630" y="10" width="100" height="40" as="geometry" />
        </mxCell>
        <mxCell id="_xqyPs2F2CwNQKM6FGWI-73" style="edgeStyle=orthogonalEdgeStyle;rounded=0;orthogonalLoop=1;jettySize=auto;html=1;exitX=0;exitY=0.5;exitDx=0;exitDy=0;strokeColor=#457B9D;fontColor=#1D3557;fillColor=#A8DADC;entryX=1;entryY=0.5;entryDx=0;entryDy=0;curved=1;endArrow=none;startFill=0;" edge="1" parent="1" source="_xqyPs2F2CwNQKM6FGWI-68" target="eST03_oMSXubiLSKI_7_-7">
          <mxGeometry relative="1" as="geometry">
            <mxPoint x="490" y="60" as="targetPoint" />
          </mxGeometry>
        </mxCell>
        <mxCell id="_xqyPs2F2CwNQKM6FGWI-68" value="Additional Charges" style="ellipse;whiteSpace=wrap;html=1;align=center;strokeColor=#d79b00;fillColor=#ffe6cc;" vertex="1" parent="1">
          <mxGeometry x="591" y="-40" width="100" height="40" as="geometry" />
        </mxCell>
        <mxCell id="_xqyPs2F2CwNQKM6FGWI-74" style="edgeStyle=orthogonalEdgeStyle;rounded=0;orthogonalLoop=1;jettySize=auto;html=1;exitX=0;exitY=0.5;exitDx=0;exitDy=0;entryX=1;entryY=0.5;entryDx=0;entryDy=0;strokeColor=#457B9D;fontColor=#1D3557;fillColor=#A8DADC;curved=1;endArrow=none;startFill=0;" edge="1" parent="1" source="_xqyPs2F2CwNQKM6FGWI-69" target="eST03_oMSXubiLSKI_7_-7">
          <mxGeometry relative="1" as="geometry" />
        </mxCell>
        <mxCell id="_xqyPs2F2CwNQKM6FGWI-69" value="&amp;nbsp;consumed &lt;br/&gt;Mileage" style="ellipse;whiteSpace=wrap;html=1;align=center;strokeColor=#d79b00;fillColor=#ffe6cc;" vertex="1" parent="1">
          <mxGeometry x="500" y="-80" width="100" height="40" as="geometry" />
        </mxCell>
        <mxCell id="_xqyPs2F2CwNQKM6FGWI-82" style="edgeStyle=orthogonalEdgeStyle;rounded=0;orthogonalLoop=1;jettySize=auto;html=1;exitX=0.5;exitY=1;exitDx=0;exitDy=0;entryX=0.5;entryY=0;entryDx=0;entryDy=0;strokeColor=#457B9D;fontColor=#1D3557;fillColor=#A8DADC;endArrow=none;startFill=0;curved=1;" edge="1" parent="1" source="_xqyPs2F2CwNQKM6FGWI-70" target="2NcFqxsxwlQrP_SusfLM-17">
          <mxGeometry relative="1" as="geometry" />
        </mxCell>
        <mxCell id="_xqyPs2F2CwNQKM6FGWI-70" value="Status" style="ellipse;whiteSpace=wrap;html=1;align=center;strokeColor=#d79b00;fillColor=#ffe6cc;" vertex="1" parent="1">
          <mxGeometry x="-170" y="-120" width="100" height="40" as="geometry" />
        </mxCell>
        <mxCell id="_xqyPs2F2CwNQKM6FGWI-84" value="" style="edgeStyle=orthogonalEdgeStyle;rounded=0;orthogonalLoop=1;jettySize=auto;html=1;exitX=0.25;exitY=0;exitDx=0;exitDy=0;entryX=1;entryY=0.5;entryDx=0;entryDy=0;strokeColor=#457B9D;fontColor=#1D3557;fillColor=#A8DADC;endArrow=none;endFill=0;startFill=0;startArrow=ERmandOne;" edge="1" parent="1" source="2NcFqxsxwlQrP_SusfLM-14" target="_xqyPs2F2CwNQKM6FGWI-85">
          <mxGeometry relative="1" as="geometry">
            <mxPoint x="975" y="240" as="sourcePoint" />
            <mxPoint x="90" y="80" as="targetPoint" />
            <Array as="points">
              <mxPoint x="975" y="-150" />
            </Array>
          </mxGeometry>
        </mxCell>
        <mxCell id="_xqyPs2F2CwNQKM6FGWI-85" value="Pay" style="shape=rhombus;perimeter=rhombusPerimeter;whiteSpace=wrap;html=1;align=center;strokeColor=#d6b656;fillColor=#fff2cc;" vertex="1" parent="1">
          <mxGeometry x="571" y="-180" width="120" height="60" as="geometry" />
        </mxCell>
      </root>
    </mxGraphModel>
  </diagram>
</mxfile>
